<svg xmlns="http://www.w3.org/2000/svg" width="94" height="86" viewBox="0 0 94 86">
  <g id="ic_chip" transform="translate(-2058.5 -197.5)">
    <path id="長方形_3" data-name="長方形 3" d="M14-.5H79A14.5,14.5,0,0,1,93.5,14V71A14.5,14.5,0,0,1,79,85.5H14A14.5,14.5,0,0,1-.5,71V14A14.5,14.5,0,0,1,14-.5Z" transform="translate(2059 198)" fill="#ccc"/>
    <path id="合体_4" data-name="合体 4" d="M14.5,86A14.5,14.5,0,0,1,0,71.5v-57A14.5,14.5,0,0,1,14.5,0h65A14.5,14.5,0,0,1,94,14.5v57A14.5,14.5,0,0,1,79.5,86Zm65-1A13.5,13.5,0,0,0,93,71.5v-10H64.5v-1H93v-17H64.5v-1H93v-17H64.5v-1H93v-10A13.5,13.5,0,0,0,79.5,1h-49V85h33V24.5h1V85ZM1,71.5A13.5,13.5,0,0,0,14.5,85h15V61.5H1Zm0-11H29.5v-17H1Zm0-18H29.5v-17H1ZM4.955,4.955A13.407,13.407,0,0,0,1,14.5v10H29.5V1h-15A13.407,13.407,0,0,0,4.955,4.955Z" transform="translate(2058.5 197.5)" fill="#707070"/>
  </g>
</svg>
